<?xml version="1.0" encoding="UTF-8"?>
<svg width="632px" height="194px" viewBox="0 0 632 194" version="1.1" xmlns="http://www.w3.org/2000/svg" xmlns:xlink="http://www.w3.org/1999/xlink">
    <!-- Generator: Sketch 44.1 (41455) - http://www.bohemiancoding.com/sketch -->
    <title>Group 5</title>
    <desc>Created with Sketch.</desc>
    <defs>
        <path d="M57.697,75.955 C80.069,75.955 94.468,89.045 94.468,109.394 C94.468,129.743 80.069,142.952 57.697,142.952 C35.325,142.952 20.926,129.743 20.926,109.394 C20.926,89.045 35.325,75.955 57.697,75.955 Z M57.697,97.137 C51.747,97.137 47.939,102.135 47.939,109.751 C47.939,117.367 51.747,122.365 57.697,122.365 C63.647,122.365 67.455,117.367 67.455,109.751 C67.455,102.135 63.647,97.137 57.697,97.137 Z M149.327,75.717 C140.759,75.717 133.976,79.525 129.573,86.189 L129.573,76.907 L102.798,76.907 L102.798,142 L129.573,142 L129.573,109.751 C129.573,103.444 132.905,99.279 138.141,99.279 C142.782,99.279 145.876,102.73 145.876,108.204 L145.876,142 L172.651,142 L172.651,100.469 C172.651,85.475 163.012,75.717 149.327,75.717 Z M213.944,75.955 C236.673,75.955 250.001,91.425 248.573,115.463 L206.209,115.463 C207.994,120.58 211.802,123.198 217.038,123.198 C221.56,123.198 226.201,121.175 230.247,117.367 L244.17,131.052 C237.268,138.668 227.272,142.952 214.658,142.952 C192.405,142.952 179.196,129.862 179.196,109.751 C179.196,89.164 193,75.955 213.944,75.955 Z M221.798,103.087 C222.155,97.732 218.823,93.805 214.182,93.805 C209.541,93.805 206.685,97.613 205.614,103.087 L221.798,103.087 Z M329.998,100.469 L338.804,83.928 C329.046,78.454 318.931,75.717 308.578,75.717 C291.204,75.717 279.899,84.523 279.899,98.208 C279.899,120.223 312.981,117.724 312.981,123.436 C312.981,124.626 311.434,125.34 308.935,125.34 C301.676,125.34 293.584,122.603 284.897,117.248 L276.805,133.908 C285.849,140.096 296.559,143.19 308.578,143.19 C326.547,143.19 338.09,134.503 338.09,121.056 C338.09,99.16 304.294,101.54 304.294,95.471 C304.294,94.162 305.722,93.329 307.983,93.329 C312.981,93.329 320.359,95.709 329.998,100.469 Z M436.146,75.717 C426.388,75.717 419.01,80.834 414.845,89.64 C411.394,80.953 403.659,75.717 393.782,75.717 C385.333,75.717 378.788,79.525 374.385,86.07 L374.385,76.907 L347.61,76.907 L347.61,142 L374.385,142 L374.385,109.751 C374.385,103.444 377.598,99.279 382.596,99.279 C386.999,99.279 389.974,102.73 389.974,108.204 L389.974,142 L416.749,142 L416.749,109.751 C416.749,103.444 419.962,99.279 424.96,99.279 C429.363,99.279 432.338,102.73 432.338,108.204 L432.338,142 L459.113,142 L459.113,100.469 C459.113,85.475 449.593,75.717 436.146,75.717 Z M483.865,47.752 C477.439,47.752 473.036,52.274 473.036,58.7 C473.036,65.007 477.439,69.529 483.865,69.529 C490.291,69.529 494.694,65.007 494.694,58.7 C494.694,52.274 490.291,47.752 483.865,47.752 Z M470.418,76.907 L470.418,142 L497.193,142 L497.193,76.907 L470.418,76.907 Z M510.878,53.702 L510.878,142 L537.653,142 L537.653,53.702 L510.878,53.702 Z M581.326,75.955 C604.055,75.955 617.383,91.425 615.955,115.463 L573.591,115.463 C575.376,120.58 579.184,123.198 584.42,123.198 C588.942,123.198 593.583,121.175 597.629,117.367 L611.552,131.052 C604.65,138.668 594.654,142.952 582.04,142.952 C559.787,142.952 546.578,129.862 546.578,109.751 C546.578,89.164 560.382,75.955 581.326,75.955 Z M589.18,103.087 C589.537,97.732 586.205,93.805 581.564,93.805 C576.923,93.805 574.067,97.613 572.996,103.087 L589.18,103.087 Z" id="path-1"></path>
        <filter x="-2.0%" y="-12.6%" width="106.0%" height="137.7%" filterUnits="objectBoundingBox" id="filter-2">
            <feOffset dx="6" dy="6" in="SourceAlpha" result="shadowOffsetOuter1"></feOffset>
            <feGaussianBlur stdDeviation="5" in="shadowOffsetOuter1" result="shadowBlurOuter1"></feGaussianBlur>
            <feColorMatrix values="0 0 0 0 1   0 0 0 0 1   0 0 0 0 1  0 0 0 0.5 0" type="matrix" in="shadowBlurOuter1"></feColorMatrix>
        </filter>
    </defs>
    <g id="Page-1" stroke="none" stroke-width="1" fill="none" fill-rule="evenodd">
        <g id="Desktop-HD" transform="translate(-80.000000, -237.000000)">
            <g id="slide1" transform="translate(-2.000000, 97.000000)">
                <g id="Group-13">
                    <g id="Group-5" transform="translate(82.000000, 140.000000)">
                        <g id="one-smile">
                            <use fill="black" fill-opacity="1" filter="url(#filter-2)" xlink:href="#path-1"></use>
                            <use fill="#157A9E" fill-rule="evenodd" xlink:href="#path-1"></use>
                        </g>
                        <path d="M412.9495,175.796 C413.7535,175.93 415.6295,176.466 415.6295,177.471 C415.6295,179.012 411.7435,183.568 411.7435,186.784 C411.7435,188.124 412.4135,189.732 414.0215,189.732 C416.4335,189.732 420.7215,186.248 424.7415,179.146 L425.4115,179.816 C422.5975,187.052 416.9025,192.01 412.1455,192.01 C408.8625,192.01 407.3215,189.665 407.3215,187.32 C407.3215,186.784 407.3885,186.114 407.5225,185.377 C403.6365,190.536 400.6885,193.149 397.4055,193.149 C394.5915,193.149 392.4475,191.34 392.4475,187.588 C392.4475,179.615 402.2965,167.019 411.0065,167.019 C414.4905,167.019 417.1035,169.029 417.1035,172.044 C417.1035,174.255 415.7635,174.925 413.8205,174.925 C414.0215,174.188 414.1555,173.317 414.1555,172.58 C414.1555,170.57 413.2845,168.828 410.8725,168.828 C404.5745,168.828 397.0705,181.29 397.0705,187.789 C397.0705,189.598 397.6735,190.402 398.8795,190.402 C403.0335,190.402 409.6665,180.62 412.9495,175.796 Z M443.8365,168.627 L443.8365,169.833 C438.9455,170.369 435.0595,170.637 432.0445,170.637 L431.0395,170.637 C428.9625,175.394 427.3545,180.486 427.3545,185.243 C427.3545,189.129 428.4265,190.603 431.1065,190.603 C435.7295,190.603 440.4195,186.181 443.8365,179.146 L444.7075,179.816 C441.4915,187.387 435.4615,193.082 429.1635,193.082 C425.2775,193.082 423.2005,190.871 423.2005,186.449 C423.2005,182.496 424.8085,176.399 427.0865,170.302 C426.2155,170.168 425.4115,170.034 424.6745,169.766 L424.6745,168.56 C425.3445,168.627 426.3495,168.761 427.6225,168.828 C431.3745,159.18 436.5335,150.001 439.2805,150.001 C439.9505,150.001 440.6875,150.537 440.6875,151.475 C440.6875,153.82 435.6625,160.788 431.7765,169.029 L434.2555,169.029 C437.2035,169.029 440.4865,168.962 443.8365,168.627 Z M480.0835,175.796 C476.8005,180.62 470.1675,190.402 466.0135,190.402 C464.8075,190.402 464.2045,189.598 464.2045,187.789 C464.2045,181.29 471.7085,168.828 478.0065,168.828 C480.4185,168.828 481.2895,170.57 481.2895,172.58 C481.2895,173.317 481.1555,174.188 480.9545,174.925 C482.8975,174.925 484.2375,174.255 484.2375,172.044 C484.2375,169.029 481.6245,167.019 478.1405,167.019 C469.4305,167.019 459.5815,179.615 459.5815,187.588 C459.5815,191.34 461.7255,193.149 464.5395,193.149 C467.8225,193.149 470.7705,190.536 474.6565,185.377 C474.5225,186.114 474.4555,186.784 474.4555,187.32 C474.4555,189.665 475.9965,192.01 479.2795,192.01 C484.0365,192.01 489.7315,187.052 492.5455,179.816 L491.8755,179.146 C487.8555,186.248 483.5675,189.732 481.1555,189.732 C479.5475,189.732 478.8775,188.124 478.8775,186.784 C478.8775,183.568 482.7635,179.012 482.7635,177.471 C482.7635,176.466 480.8875,175.93 480.0835,175.796 Z M529.6635,168.627 L529.6635,169.833 C524.7725,170.369 520.8865,170.637 517.8715,170.637 L516.8665,170.637 C514.7895,175.394 513.1815,180.486 513.1815,185.243 C513.1815,189.129 514.2535,190.603 516.9335,190.603 C521.5565,190.603 526.2465,186.181 529.6635,179.146 L530.5345,179.816 C527.3185,187.387 521.2885,193.082 514.9905,193.082 C511.1045,193.082 509.0275,190.871 509.0275,186.449 C509.0275,182.496 510.6355,176.399 512.9135,170.302 C512.0425,170.168 511.2385,170.034 510.5015,169.766 L510.5015,168.56 C511.1715,168.627 512.1765,168.761 513.4495,168.828 C517.2015,159.18 522.3605,150.001 525.1075,150.001 C525.7775,150.001 526.5145,150.537 526.5145,151.475 C526.5145,153.82 521.4895,160.788 517.6035,169.029 L520.0825,169.029 C523.0305,169.029 526.3135,168.962 529.6635,168.627 Z M537.7705,167.287 C538.5745,167.287 539.2445,167.823 539.2445,168.761 C539.2445,170.972 532.2765,179.079 532.2765,185.377 C532.2765,188.593 533.3485,189.397 535.5595,189.397 C538.5745,189.397 542.0585,186.784 545.8775,179.146 L546.4805,179.816 C543.8675,187.521 538.5075,191.742 533.2815,191.742 C529.7975,191.742 528.1225,189.263 528.1225,186.114 C528.1225,181.022 533.2145,167.287 537.7705,167.287 Z M541.3215,161.056 C543.4655,161.056 545.6765,159.113 545.6765,157.438 C545.6765,155.897 544.8055,155.361 543.4655,155.361 C541.3215,155.361 538.5745,156.969 538.5745,158.845 C538.5745,160.386 539.8475,161.056 541.3215,161.056 Z M562.0245,191.474 C560.9525,191.474 558.6075,191.072 558.6075,190.134 C558.6075,188.928 562.8285,179.414 562.8285,174.724 C562.8285,173.183 562.3595,172.178 561.1535,172.178 C557.2675,172.178 549.2275,182.764 545.9445,191.809 C544.6715,191.809 542.3265,191.072 542.3265,190.402 C542.3265,189.397 546.8825,178.409 546.9495,172.513 C547.4855,171.91 548.7585,171.106 550.0315,171.106 C551.2375,171.106 551.8405,171.776 551.8405,172.848 C551.8405,174.054 551.1035,177.136 550.0985,180.486 C553.7165,174.791 559.4115,167.756 564.2355,167.756 C566.9825,167.756 567.8535,170.101 567.8535,172.848 C567.8535,176.265 566.5135,180.486 565.7765,182.295 C568.5905,177.203 572.3425,171.977 576.8985,171.977 C579.7125,171.977 580.7175,173.987 580.7175,176.265 C580.7175,179.816 578.2385,184.64 578.2385,187.454 C578.2385,188.66 578.7075,189.732 580.2485,189.732 C583.9335,189.732 587.1495,183.702 589.2265,179.146 L590.0305,180.084 C587.8865,185.712 583.7995,192.077 578.4395,192.077 C575.2905,192.077 573.9505,189.866 573.9505,187.186 C573.9505,183.903 575.9605,180.285 575.9605,177.672 C575.9605,175.93 575.0225,175.26 574.0175,175.26 C571.8065,175.26 569.3945,178.878 565.2405,185.243 C563.8335,187.387 562.8955,189.665 562.0245,191.474 Z M608.2545,169.967 C608.2545,176.801 599.2765,182.228 591.6385,182.965 C591.4375,183.836 591.3705,184.707 591.3705,185.377 C591.3705,188.124 592.5095,191.005 596.6635,191.005 C602.3585,191.005 608.3215,185.578 611.6715,179.146 L612.4755,179.749 C608.8575,187.789 601.8895,192.948 595.2565,192.948 C589.8295,192.948 587.0825,189.531 587.0825,185.176 C587.0825,177.203 596.1945,165.88 604.1005,165.88 C606.1775,165.88 608.2545,166.684 608.2545,169.967 Z M603.8995,167.957 C599.6115,167.957 593.7825,175.327 591.9735,181.692 C596.7305,180.017 605.3065,175.26 605.3065,169.498 C605.3065,168.493 605.0385,167.957 603.8995,167.957 Z" id="at-a-time" fill="#444444"></path>
                        <path d="M28.292,2.837 C18.644,2.837 5.914,24.545 5.914,39.62 C5.914,46.253 8.594,52.551 15.361,52.551 C22.463,52.551 30.034,45.784 33.585,38.146 L34.523,38.816 C30.034,47.593 22.731,54.829 13.753,54.829 C4.239,54.829 0.554,46.655 0.554,38.481 C0.554,20.793 15.361,0.827 28.091,0.827 C31.709,0.827 34.255,2.435 34.255,6.589 C34.255,11.815 30.168,20.86 26.483,20.86 C25.746,20.86 24.942,20.458 24.406,19.319 C27.153,16.237 31.575,9.671 31.575,5.852 C31.575,4.043 30.57,2.837 28.292,2.837 Z M48.794,46.387 C48.794,43.573 50.871,39.486 50.871,36.27 C50.871,33.925 49.732,33.054 48.325,33.054 C41.692,33.054 39.213,51.546 35.394,51.546 C33.719,51.546 32.647,48.129 32.647,44.578 C32.647,31.781 46.851,1.162 52.68,1.162 C54.288,1.162 54.891,3.574 54.891,5.383 C54.891,11.614 47.387,26.153 39.481,30.91 C37.806,34.863 37.002,40.491 37.002,44.109 C37.002,45.114 37.069,45.784 37.136,46.387 C40.285,37.208 44.774,29.034 50.737,29.034 C54.422,29.034 55.829,32.116 55.829,35.064 C55.829,39.218 52.948,43.037 52.948,46.32 C52.948,48.129 53.819,48.866 54.958,48.866 C57.973,48.866 62.73,43.975 65.41,38.146 L66.281,38.95 C63.467,45.516 58.576,50.608 53.417,50.608 C50.335,50.608 48.794,48.799 48.794,46.387 Z M52.345,6.589 C51.005,6.589 43.702,17.376 40.352,28.297 C46.516,23.339 52.613,10.542 52.613,7.125 C52.613,6.723 52.546,6.589 52.345,6.589 Z M82.964,34.796 C83.768,34.93 85.644,35.466 85.644,36.471 C85.644,38.012 81.758,42.568 81.758,45.784 C81.758,47.124 82.428,48.732 84.036,48.732 C86.448,48.732 90.736,45.248 94.756,38.146 L95.426,38.816 C92.612,46.052 86.917,51.01 82.16,51.01 C78.877,51.01 77.336,48.665 77.336,46.32 C77.336,45.784 77.403,45.114 77.537,44.377 C73.651,49.536 70.703,52.149 67.42,52.149 C64.606,52.149 62.462,50.34 62.462,46.588 C62.462,38.615 72.311,26.019 81.021,26.019 C84.505,26.019 87.118,28.029 87.118,31.044 C87.118,33.255 85.778,33.925 83.835,33.925 C84.036,33.188 84.17,32.317 84.17,31.58 C84.17,29.57 83.299,27.828 80.887,27.828 C74.589,27.828 67.085,40.29 67.085,46.789 C67.085,48.598 67.688,49.402 68.894,49.402 C73.048,49.402 79.681,39.62 82.964,34.796 Z M90.937,48.531 C90.937,47.727 95.627,37.878 95.694,32.049 C96.23,31.446 97.503,30.642 98.776,30.642 C99.982,30.642 100.585,31.312 100.585,32.384 C100.585,33.791 99.647,37.543 98.441,41.228 C101.992,35.801 107.285,29.436 112.377,29.436 C115.861,29.436 117.335,32.451 117.335,35.466 C117.335,39.62 114.588,42.769 114.588,46.052 C114.588,47.928 115.459,48.598 116.598,48.598 C119.948,48.598 123.499,43.104 125.978,38.146 L126.715,39.017 C123.901,45.583 120.149,50.34 115.124,50.34 C111.975,50.34 110.434,48.531 110.434,46.052 C110.434,43.305 112.377,39.888 112.377,36.739 C112.377,34.26 111.238,33.456 109.697,33.456 C104.136,33.456 97.972,44.109 94.488,50.005 C93.081,50.005 91.674,49.536 90.937,48.531 Z M144.537,29.235 C144.068,28.565 143.197,28.23 141.857,28.23 C134.822,28.23 128.39,37.811 128.39,43.439 C128.39,45.583 129.328,46.722 130.735,46.722 C133.281,46.722 137.234,42.769 140.651,37.878 L141.455,34.327 C141.723,33.054 142.661,30.91 144.872,30.91 C145.274,30.91 145.743,30.977 146.279,31.111 C146.279,33.322 144.202,41.496 141.12,49.469 C145.475,47.392 150.031,43.238 152.041,38.146 L152.912,38.816 C150.835,44.846 144.537,49.402 140.383,51.412 C136.631,60.457 132.343,67.76 127.318,67.76 C125.375,67.76 123.432,66.621 123.432,63.874 C123.432,58.447 130.869,54.896 136.497,52.082 C137.703,49 138.842,45.382 139.914,41.027 C136.497,45.918 132.745,49.603 128.993,49.603 C125.777,49.603 123.968,46.99 123.968,43.104 C123.968,33.791 134.487,25.751 141.723,25.751 C144.269,25.751 145.341,26.756 145.341,27.895 C145.341,28.699 144.738,29.168 144.537,29.235 Z M127.117,65.616 C128.859,65.616 132.209,62.467 135.76,53.891 C130.467,56.571 125.509,59.452 125.509,63.271 C125.509,64.678 126.179,65.616 127.117,65.616 Z M160.215,26.287 C161.019,26.287 161.689,26.823 161.689,27.761 C161.689,29.972 154.721,38.079 154.721,44.377 C154.721,47.593 155.793,48.397 158.004,48.397 C161.019,48.397 164.503,45.784 168.322,38.146 L168.925,38.816 C166.312,46.521 160.952,50.742 155.726,50.742 C152.242,50.742 150.567,48.263 150.567,45.114 C150.567,40.022 155.659,26.287 160.215,26.287 Z M163.766,20.056 C165.91,20.056 168.121,18.113 168.121,16.438 C168.121,14.897 167.25,14.361 165.91,14.361 C163.766,14.361 161.019,15.969 161.019,17.845 C161.019,19.386 162.292,20.056 163.766,20.056 Z M164.57,48.531 C164.57,47.727 169.26,37.878 169.327,32.049 C169.863,31.446 171.136,30.642 172.409,30.642 C173.615,30.642 174.218,31.312 174.218,32.384 C174.218,33.791 173.28,37.543 172.074,41.228 C175.625,35.801 180.918,29.436 186.01,29.436 C189.494,29.436 190.968,32.451 190.968,35.466 C190.968,39.62 188.221,42.769 188.221,46.052 C188.221,47.928 189.092,48.598 190.231,48.598 C193.581,48.598 197.132,43.104 199.611,38.146 L200.348,39.017 C197.534,45.583 193.782,50.34 188.757,50.34 C185.608,50.34 184.067,48.531 184.067,46.052 C184.067,43.305 186.01,39.888 186.01,36.739 C186.01,34.26 184.871,33.456 183.33,33.456 C177.769,33.456 171.605,44.109 168.121,50.005 C166.714,50.005 165.307,49.536 164.57,48.531 Z M218.17,29.235 C217.701,28.565 216.83,28.23 215.49,28.23 C208.455,28.23 202.023,37.811 202.023,43.439 C202.023,45.583 202.961,46.722 204.368,46.722 C206.914,46.722 210.867,42.769 214.284,37.878 L215.088,34.327 C215.356,33.054 216.294,30.91 218.505,30.91 C218.907,30.91 219.376,30.977 219.912,31.111 C219.912,33.322 217.835,41.496 214.753,49.469 C219.108,47.392 223.664,43.238 225.674,38.146 L226.545,38.816 C224.468,44.846 218.17,49.402 214.016,51.412 C210.264,60.457 205.976,67.76 200.951,67.76 C199.008,67.76 197.065,66.621 197.065,63.874 C197.065,58.447 204.502,54.896 210.13,52.082 C211.336,49 212.475,45.382 213.547,41.027 C210.13,45.918 206.378,49.603 202.626,49.603 C199.41,49.603 197.601,46.99 197.601,43.104 C197.601,33.791 208.12,25.751 215.356,25.751 C217.902,25.751 218.974,26.756 218.974,27.895 C218.974,28.699 218.371,29.168 218.17,29.235 Z M200.75,65.616 C202.492,65.616 205.842,62.467 209.393,53.891 C204.1,56.571 199.142,59.452 199.142,63.271 C199.142,64.678 199.812,65.616 200.75,65.616 Z M251.536,18.649 C251.536,30.642 271.904,30.91 271.904,42.434 C271.904,48.866 265.472,52.216 259.442,52.216 C252.474,52.216 249.191,47.794 249.191,42.836 C249.191,39.754 250.464,36.471 252.876,33.858 C249.191,33.858 244.3,35.868 244.3,42.836 C244.3,50.943 251,54.829 258.303,54.829 C266.544,54.829 275.79,49.804 275.79,40.558 C275.79,26.89 255.757,27.091 255.757,17.108 C255.757,11.547 262.055,2.368 270.497,2.368 C273.378,2.368 274.249,3.44 274.249,5.249 C274.249,9.135 270.296,15.567 270.296,19.319 C270.296,20.793 270.899,21.865 272.507,22.2 C274.651,18.783 277.666,12.351 277.666,7.46 C277.666,3.641 275.857,0.76 270.631,0.76 C258.973,0.76 251.536,11.212 251.536,18.649 Z M301.451,27.627 L301.451,28.833 C296.56,29.369 292.674,29.637 289.659,29.637 L288.654,29.637 C286.577,34.394 284.969,39.486 284.969,44.243 C284.969,48.129 286.041,49.603 288.721,49.603 C293.344,49.603 298.034,45.181 301.451,38.146 L302.322,38.816 C299.106,46.387 293.076,52.082 286.778,52.082 C282.892,52.082 280.815,49.871 280.815,45.449 C280.815,41.496 282.423,35.399 284.701,29.302 C283.83,29.168 283.026,29.034 282.289,28.766 L282.289,27.56 C282.959,27.627 283.964,27.761 285.237,27.828 C288.989,18.18 294.148,9.001 296.895,9.001 C297.565,9.001 298.302,9.537 298.302,10.475 C298.302,12.82 293.277,19.788 289.391,28.029 L291.87,28.029 C294.818,28.029 298.101,27.962 301.451,27.627 Z M319.005,34.796 C319.809,34.93 321.685,35.466 321.685,36.471 C321.685,38.012 317.799,42.568 317.799,45.784 C317.799,47.124 318.469,48.732 320.077,48.732 C322.489,48.732 326.777,45.248 330.797,38.146 L331.467,38.816 C328.653,46.052 322.958,51.01 318.201,51.01 C314.918,51.01 313.377,48.665 313.377,46.32 C313.377,45.784 313.444,45.114 313.578,44.377 C309.692,49.536 306.744,52.149 303.461,52.149 C300.647,52.149 298.503,50.34 298.503,46.588 C298.503,38.615 308.352,26.019 317.062,26.019 C320.546,26.019 323.159,28.029 323.159,31.044 C323.159,33.255 321.819,33.925 319.876,33.925 C320.077,33.188 320.211,32.317 320.211,31.58 C320.211,29.57 319.34,27.828 316.928,27.828 C310.63,27.828 303.126,40.29 303.126,46.789 C303.126,48.598 303.729,49.402 304.935,49.402 C309.089,49.402 315.722,39.62 319.005,34.796 Z M351.031,30.776 C351.031,32.987 348.954,41.429 345.805,49.536 C349.959,47.928 354.314,44.31 356.86,38.146 L357.731,38.816 C355.721,45.248 350.026,49.067 345.068,51.345 C341.584,59.921 337.028,67.76 332.405,67.76 C330.127,67.76 328.184,66.554 328.184,64.209 C328.184,58.514 334.415,55.499 341.182,52.082 C342.455,48.799 343.728,44.712 344.934,39.821 C342.053,44.511 338.77,48.33 335.152,48.33 C332.539,48.33 329.792,46.655 329.792,42.903 C329.792,37.945 333.745,28.297 335.688,28.297 C336.224,28.297 338.636,29.034 338.636,29.838 C337.095,32.116 334.214,39.352 334.214,42.97 C334.214,44.578 334.817,45.65 336.626,45.65 C339.172,45.65 342.857,41.496 345.537,37.074 C345.805,36.069 346.006,35.064 346.207,33.992 C346.475,32.719 347.413,30.575 349.624,30.575 C350.026,30.575 350.495,30.642 351.031,30.776 Z M332.07,65.616 C333.41,65.616 336.894,62.534 340.512,53.69 C334.951,56.638 330.261,59.184 330.261,63.606 C330.261,64.343 330.73,65.616 332.07,65.616 Z M376.022,27.627 L376.022,28.833 C371.131,29.369 367.245,29.637 364.23,29.637 L363.225,29.637 C361.148,34.394 359.54,39.486 359.54,44.243 C359.54,48.129 360.612,49.603 363.292,49.603 C367.915,49.603 372.605,45.181 376.022,38.146 L376.893,38.816 C373.677,46.387 367.647,52.082 361.349,52.082 C357.463,52.082 355.386,49.871 355.386,45.449 C355.386,41.496 356.994,35.399 359.272,29.302 C358.401,29.168 357.597,29.034 356.86,28.766 L356.86,27.56 C357.53,27.627 358.535,27.761 359.808,27.828 C363.56,18.18 368.719,9.001 371.466,9.001 C372.136,9.001 372.873,9.537 372.873,10.475 C372.873,12.82 367.848,19.788 363.962,28.029 L366.441,28.029 C369.389,28.029 372.672,27.962 376.022,27.627 Z M403.224,38.28 L404.095,38.95 C402.152,43.439 399.606,44.712 397.395,44.712 C394.916,44.712 392.437,43.104 391.097,40.022 C388.283,46.588 384.062,51.144 379.372,51.144 C375.955,51.144 374.012,48.732 374.012,45.315 C374.012,38.213 382.253,25.416 390.226,25.416 C391.901,25.416 392.705,26.019 393.107,26.823 C393.241,26.756 393.375,26.756 393.576,26.756 C395.251,26.756 395.854,28.565 395.854,29.369 C395.854,31.044 393.241,34.26 393.241,37.811 C393.241,41.228 395.586,43.372 397.931,43.372 C399.807,43.372 401.482,41.965 403.224,38.28 Z M380.846,48.263 C383.861,48.263 388.015,43.707 390.427,37.945 C390.159,36.873 390.025,35.667 390.025,34.126 C390.025,31.111 390.561,29.168 391.298,28.029 C383.727,28.029 378.3,39.754 378.3,44.846 C378.3,46.923 379.238,48.263 380.846,48.263 Z M399.405,48.531 C399.405,47.727 404.095,37.878 404.162,32.049 C404.698,31.446 405.971,30.642 407.244,30.642 C408.45,30.642 409.053,31.312 409.053,32.384 C409.053,33.791 408.115,37.543 406.909,41.228 C410.46,35.801 415.753,29.436 420.845,29.436 C424.329,29.436 425.803,32.451 425.803,35.466 C425.803,39.62 423.056,42.769 423.056,46.052 C423.056,47.928 423.927,48.598 425.066,48.598 C428.416,48.598 431.967,43.104 434.446,38.146 L435.183,39.017 C432.369,45.583 428.617,50.34 423.592,50.34 C420.443,50.34 418.902,48.531 418.902,46.052 C418.902,43.305 420.845,39.888 420.845,36.739 C420.845,34.26 419.706,33.456 418.165,33.456 C412.604,33.456 406.44,44.109 402.956,50.005 C401.549,50.005 400.142,49.536 399.405,48.531 Z" id="Changing-Stayton" fill="#444444"></path>
                    </g>
                </g>
            </g>
        </g>
    </g>
</svg>