<?xml version="1.0" encoding="UTF-8"?>
<svg width="704px" height="169px" viewBox="0 0 704 169" version="1.1" xmlns="http://www.w3.org/2000/svg" xmlns:xlink="http://www.w3.org/1999/xlink">
    <!-- Generator: Sketch 44.1 (41455) - http://www.bohemiancoding.com/sketch -->
    <title>Group 16</title>
    <desc>Created with Sketch.</desc>
    <defs>
        <path d="M40.70688,23.16298 C33.87696,23.16298 28.46994,26.1985 24.96012,31.51066 L24.96012,24.11158 L3.61662,24.11158 L3.61662,76 L24.96012,76 L24.96012,50.29294 C24.96012,45.26536 27.6162,41.94526 31.79004,41.94526 C35.48958,41.94526 37.95594,44.6962 37.95594,49.05976 L37.95594,76 L59.29944,76 L59.29944,42.89386 C59.29944,30.9415 51.61578,23.16298 40.70688,23.16298 Z M93.82848,23.3527 C111.66216,23.3527 123.14022,33.7873 123.14022,50.00836 C123.14022,66.22942 111.66216,76.75888 93.82848,76.75888 C75.9948,76.75888 64.51674,66.22942 64.51674,50.00836 C64.51674,33.7873 75.9948,23.3527 93.82848,23.3527 Z M93.82848,40.23778 C89.08548,40.23778 86.04996,44.2219 86.04996,50.29294 C86.04996,56.36398 89.08548,60.3481 93.82848,60.3481 C98.57148,60.3481 101.607,56.36398 101.607,50.29294 C101.607,44.2219 98.57148,40.23778 93.82848,40.23778 Z M168.9576,0.87088 C163.83516,0.87088 160.32534,4.47556 160.32534,9.598 C160.32534,14.62558 163.83516,18.23026 168.9576,18.23026 C174.08004,18.23026 177.58986,14.62558 177.58986,9.598 C177.58986,4.47556 174.08004,0.87088 168.9576,0.87088 Z M158.23842,24.11158 L158.23842,76 L179.58192,76 L179.58192,24.11158 L158.23842,24.11158 Z M227.10678,23.16298 C220.27686,23.16298 214.86984,26.1985 211.36002,31.51066 L211.36002,24.11158 L190.01652,24.11158 L190.01652,76 L211.36002,76 L211.36002,50.29294 C211.36002,45.26536 214.0161,41.94526 218.18994,41.94526 C221.88948,41.94526 224.35584,44.6962 224.35584,49.05976 L224.35584,76 L245.69934,76 L245.69934,42.89386 C245.69934,30.9415 238.01568,23.16298 227.10678,23.16298 Z M293.03448,42.89386 L300.05412,29.70832 C292.2756,25.34476 284.2125,23.16298 275.95968,23.16298 C262.11012,23.16298 253.09842,30.18262 253.09842,41.09152 C253.09842,58.64062 279.4695,56.64856 279.4695,61.20184 C279.4695,62.15044 278.23632,62.7196 276.24426,62.7196 C270.4578,62.7196 264.00732,60.53782 257.08254,56.26912 L250.63206,69.54952 C257.84142,74.48224 266.37882,76.9486 275.95968,76.9486 C290.28354,76.9486 299.48496,70.02382 299.48496,59.30464 C299.48496,41.8504 272.54472,43.7476 272.54472,38.90974 C272.54472,37.86628 273.68304,37.20226 275.48538,37.20226 C279.4695,37.20226 285.35082,39.09946 293.03448,42.89386 Z M339.04158,24.11158 L339.04158,49.81864 C339.04158,54.84622 336.57522,58.16632 332.68596,58.16632 C329.271,58.16632 326.99436,55.41538 326.99436,51.05182 L326.99436,24.11158 L305.65086,24.11158 L305.65086,57.21772 C305.65086,69.17008 313.1448,76.9486 323.76912,76.9486 C330.40932,76.9486 335.62662,74.00794 339.04158,68.79064 L339.04158,76 L360.38508,76 L360.38508,24.11158 L339.04158,24.11158 Z M392.16318,31.70038 L392.16318,24.11158 L370.81968,24.11158 L370.81968,76 L392.16318,76 L392.16318,51.24154 C392.16318,44.41162 398.42394,40.99666 408.0048,42.41956 L408.0048,23.16298 C401.26974,23.16298 395.76786,26.29336 392.16318,31.70038 Z M438.45486,23.16298 C453.44274,23.16298 462.35958,30.18262 462.35958,42.41956 L462.35958,76 L441.39552,76 L441.39552,70.40326 C438.36,74.5771 433.42728,76.9486 426.78708,76.9486 C415.78332,76.9486 409.4277,70.49812 409.4277,60.63268 C409.4277,50.3878 416.35248,44.98078 429.53802,44.79106 L441.39552,44.79106 C441.30066,41.18638 438.54972,39.09946 433.33242,39.09946 C429.44316,39.09946 423.46698,40.23778 417.58566,42.41956 L412.84266,28.19056 C421.66464,24.96532 430.7712,23.16298 438.45486,23.16298 Z M434.18616,63.38362 C436.9371,63.38362 439.68804,61.96072 441.39552,59.3995 L441.39552,54.6565 L433.99644,54.6565 C431.05578,54.6565 429.44316,56.0794 429.44316,58.83034 C429.44316,61.67614 431.15064,63.38362 434.18616,63.38362 Z M508.46154,23.16298 C501.63162,23.16298 496.2246,26.1985 492.71478,31.51066 L492.71478,24.11158 L471.37128,24.11158 L471.37128,76 L492.71478,76 L492.71478,50.29294 C492.71478,45.26536 495.37086,41.94526 499.5447,41.94526 C503.24424,41.94526 505.7106,44.6962 505.7106,49.05976 L505.7106,76 L527.0541,76 L527.0541,42.89386 C527.0541,30.9415 519.37044,23.16298 508.46154,23.16298 Z M567.27474,45.54994 L584.25468,38.34058 C579.98598,28.85458 570.97428,23.3527 559.68594,23.3527 C543.08544,23.3527 532.2714,33.97702 532.2714,50.29294 C532.2714,66.32428 542.99058,76.75888 559.49622,76.75888 C571.35372,76.75888 580.46028,71.44672 584.25468,62.2453 L566.99016,54.27706 C565.85184,58.16632 563.67006,59.8738 560.63454,59.8738 C556.4607,59.8738 553.80462,56.0794 553.80462,50.19808 C553.80462,44.41162 556.4607,40.61722 560.63454,40.61722 C563.67006,40.61722 565.9467,42.41956 567.27474,45.54994 Z M612.23838,23.3527 C630.35664,23.3527 640.98096,35.6845 639.84264,54.84622 L606.07248,54.84622 C607.49538,58.9252 610.5309,61.01212 614.70474,61.01212 C618.30942,61.01212 622.00896,59.3995 625.2342,56.36398 L636.33282,67.27288 C630.83094,73.34392 622.8627,76.75888 612.80754,76.75888 C595.06872,76.75888 584.53926,66.32428 584.53926,50.29294 C584.53926,33.88216 595.54302,23.3527 612.23838,23.3527 Z M618.49914,44.98078 C618.78372,40.71208 616.12764,37.5817 612.4281,37.5817 C608.72856,37.5817 606.45192,40.61722 605.59818,44.98078 L618.49914,44.98078 Z M641.45526,32.8387 L657.77118,32.8387 C657.77118,27.71626 659.3838,25.34476 662.89362,25.34476 C665.73942,25.34476 667.06746,26.57794 667.06746,29.32888 C667.06746,36.6331 656.63286,38.15086 656.63286,52.285 L672.47448,52.285 C672.47448,42.3247 686.70348,39.57376 686.70348,25.81906 C686.70348,14.91016 678.64038,8.55454 664.88568,8.55454 C650.08752,8.55454 641.45526,17.56624 641.45526,32.8387 Z M664.22166,57.31258 C658.53006,57.31258 654.54594,61.2967 654.54594,66.9883 C654.54594,72.77476 658.53006,76.75888 664.22166,76.75888 C670.00812,76.75888 673.99224,72.77476 673.99224,66.9883 C673.99224,61.2967 670.00812,57.31258 664.22166,57.31258 Z" id="path-1"></path>
        <filter x="-1.8%" y="-15.8%" width="105.3%" height="147.3%" filterUnits="objectBoundingBox" id="filter-2">
            <feOffset dx="6" dy="6" in="SourceAlpha" result="shadowOffsetOuter1"></feOffset>
            <feGaussianBlur stdDeviation="5" in="shadowOffsetOuter1" result="shadowBlurOuter1"></feGaussianBlur>
            <feColorMatrix values="0 0 0 0 1   0 0 0 0 1   0 0 0 0 1  0 0 0 0.5 0" type="matrix" in="shadowBlurOuter1"></feColorMatrix>
        </filter>
    </defs>
    <g id="Page-1" stroke="none" stroke-width="1" fill="none" fill-rule="evenodd">
        <g id="Desktop-HD" transform="translate(-85.000000, -215.000000)">
            <g id="slide3" transform="translate(-15.000000, 98.000000)">
                <g id="Group-13">
                    <g id="Group-14" transform="translate(93.000000, 120.000000)">
                        <g id="Group-16" transform="translate(8.000000, 0.000000)">
                            <g id="no-insurance?">
                                <use fill="black" fill-opacity="1" filter="url(#filter-2)" xlink:href="#path-1"></use>
                                <use fill="#157A9E" fill-rule="evenodd" xlink:href="#path-1"></use>
                            </g>
                            <path d="M33.18,96.51 C32.13,95.95 30.73,95.67 28.98,95.67 C15.61,95.67 0,116.74 0,134.73 C0,145.23 5.46,152.09 13.44,152.09 C24.71,152.09 40.67,138.09 40.67,112.61 C40.67,107.15 39.55,99.1 34.72,99.1 C30.1,99.1 22.05,107.57 22.05,112.54 C22.05,114.08 23.03,115.41 25.41,115.97 C26.53,110.72 31.43,100.99 34.86,100.99 C37.24,100.99 38.01,106.8 38.01,110.65 C38.01,127.24 28.63,149.71 15.54,149.71 C8.89,149.71 6.16,143.2 6.16,135.71 C6.16,118.7 20.37,96.51 32.41,96.51 L33.18,96.51 Z M61.32,127.03 C62.09,127.17 64.68,127.66 64.68,128.85 C64.68,129.62 59.99,138.51 59.99,143.2 C59.99,144.88 60.62,146 62.3,146 C65.24,146 70.56,141.87 73.99,134.66 L74.9,135.29 C71.89,142.85 65.8,148.1 60.83,148.1 C57.12,148.1 55.93,145.79 55.93,142.92 C55.93,141.8 56.14,140.61 56.42,139.42 C53.83,144.04 50.75,148.1 47.25,148.1 C44.1,148.1 42,144.81 42,141.03 C42,135.71 46.06,125.14 48.16,125.14 C48.65,125.14 49.98,125.7 50.75,126.54 C49.21,128.92 46.06,135.92 46.06,140.61 C46.06,141.8 46.27,145.3 48.58,145.3 C52.92,145.3 58.66,132.28 61.32,127.03 Z M73.43,138.3 L72.8,137.11 C74.06,134.66 76.44,129.76 78.47,123.81 C78.05,123.39 77.77,122.83 77.77,122.13 C77.77,119.33 79.94,117.37 80.71,117.37 C81.69,117.37 81.69,118.56 81.69,119.05 C81.69,119.54 80.92,121.36 80.92,121.64 C80.92,124.23 88.06,125.42 88.06,131.37 C88.06,135.64 84.56,140.26 84.56,143.2 C84.56,144.88 85.54,145.3 86.66,145.3 C91.07,145.3 96.81,138.93 98.56,134.87 L99.47,135.57 C96.81,141.52 90.79,147.82 84.84,147.82 C81.69,147.82 79.73,146 79.73,143.27 C79.73,139.14 83.58,133.89 83.58,130.18 C83.58,127.17 81.41,126.12 79.66,124.86 C77.49,130.39 74.9,135.78 73.43,138.3 Z M125.3,147.82 C134.96,147.82 141.82,137.53 141.82,130.25 C141.82,125.49 138.88,122.27 134.75,122.27 C129.29,122.27 125.02,127.94 122.64,132.56 C123.62,128.01 124.25,124.44 124.25,123.11 C124.25,121.5 123.27,119.89 120.89,119.89 C119.77,119.89 119.63,120.24 119.56,121.08 C116.2,149.15 113.33,151.39 110.04,162.94 C109.97,163.22 111.02,165.6 112.21,165.6 C112.49,165.6 112.84,165.46 113.05,165.25 C114.66,163.71 118.37,150.76 121.66,136.76 C123.41,132.7 128.38,125.49 133.28,125.49 C136.08,125.49 137.27,127.94 137.27,130.88 C137.27,138.02 130.48,146.21 122.99,146.21 C122.01,146.21 121.24,146.21 121.24,146.56 C121.24,147.12 122.85,147.82 125.3,147.82 Z M163.73,131.16 C164.57,131.3 166.53,131.86 166.53,132.91 C166.53,134.52 162.47,139.28 162.47,142.64 C162.47,144.04 163.17,145.72 164.85,145.72 C167.37,145.72 171.85,142.08 176.05,134.66 L176.75,135.36 C173.81,142.92 167.86,148.1 162.89,148.1 C159.46,148.1 157.85,145.65 157.85,143.2 C157.85,142.64 157.92,141.94 158.06,141.17 C154,146.56 150.92,149.29 147.49,149.29 C144.55,149.29 142.31,147.4 142.31,143.48 C142.31,135.15 152.6,121.99 161.7,121.99 C165.34,121.99 168.07,124.09 168.07,127.24 C168.07,129.55 166.67,130.25 164.64,130.25 C164.85,129.48 164.99,128.57 164.99,127.8 C164.99,125.7 164.08,123.88 161.56,123.88 C154.98,123.88 147.14,136.9 147.14,143.69 C147.14,145.58 147.77,146.42 149.03,146.42 C153.37,146.42 160.3,136.2 163.73,131.16 Z M196,123.67 L196,124.93 C190.89,125.49 186.83,125.77 183.68,125.77 L182.63,125.77 C180.46,130.74 178.78,136.06 178.78,141.03 C178.78,145.09 179.9,146.63 182.7,146.63 C187.53,146.63 192.43,142.01 196,134.66 L196.91,135.36 C193.55,143.27 187.25,149.22 180.67,149.22 C176.61,149.22 174.44,146.91 174.44,142.29 C174.44,138.16 176.12,131.79 178.5,125.42 C177.59,125.28 176.75,125.14 175.98,124.86 L175.98,123.6 C176.68,123.67 177.73,123.81 179.06,123.88 C182.98,113.8 188.37,104.21 191.24,104.21 C191.94,104.21 192.71,104.77 192.71,105.75 C192.71,108.2 187.46,115.48 183.4,124.09 L185.99,124.09 C189.07,124.09 192.5,124.02 196,123.67 Z M204.47,122.27 C205.31,122.27 206.01,122.83 206.01,123.81 C206.01,126.12 198.73,134.59 198.73,141.17 C198.73,144.53 199.85,145.37 202.16,145.37 C205.31,145.37 208.95,142.64 212.94,134.66 L213.57,135.36 C210.84,143.41 205.24,147.82 199.78,147.82 C196.14,147.82 194.39,145.23 194.39,141.94 C194.39,136.62 199.71,122.27 204.47,122.27 Z M208.18,115.76 C210.42,115.76 212.73,113.73 212.73,111.98 C212.73,110.37 211.82,109.81 210.42,109.81 C208.18,109.81 205.31,111.49 205.31,113.45 C205.31,115.06 206.64,115.76 208.18,115.76 Z M232.82,125.07 C232.82,132.21 223.44,137.88 215.46,138.65 C215.25,139.56 215.18,140.47 215.18,141.17 C215.18,144.04 216.37,147.05 220.71,147.05 C226.66,147.05 232.89,141.38 236.39,134.66 L237.23,135.29 C233.45,143.69 226.17,149.08 219.24,149.08 C213.57,149.08 210.7,145.51 210.7,140.96 C210.7,132.63 220.22,120.8 228.48,120.8 C230.65,120.8 232.82,121.64 232.82,125.07 Z M228.27,122.97 C223.79,122.97 217.7,130.67 215.81,137.32 C220.78,135.57 229.74,130.6 229.74,124.58 C229.74,123.53 229.46,122.97 228.27,122.97 Z M232.4,145.51 C232.4,144.67 237.3,134.38 237.37,128.29 C237.93,127.66 239.26,126.82 240.59,126.82 C241.85,126.82 242.48,127.52 242.48,128.64 C242.48,130.11 241.5,134.03 240.24,137.88 C243.95,132.21 249.48,125.56 254.8,125.56 C258.44,125.56 259.98,128.71 259.98,131.86 C259.98,136.2 257.11,139.49 257.11,142.92 C257.11,144.88 258.02,145.58 259.21,145.58 C262.71,145.58 266.42,139.84 269.01,134.66 L269.78,135.57 C266.84,142.43 262.92,147.4 257.67,147.4 C254.38,147.4 252.77,145.51 252.77,142.92 C252.77,140.05 254.8,136.48 254.8,133.19 C254.8,130.6 253.61,129.76 252,129.76 C246.19,129.76 239.75,140.89 236.11,147.05 C234.64,147.05 233.17,146.56 232.4,145.51 Z M289.03,123.67 L289.03,124.93 C283.92,125.49 279.86,125.77 276.71,125.77 L275.66,125.77 C273.49,130.74 271.81,136.06 271.81,141.03 C271.81,145.09 272.93,146.63 275.73,146.63 C280.56,146.63 285.46,142.01 289.03,134.66 L289.94,135.36 C286.58,143.27 280.28,149.22 273.7,149.22 C269.64,149.22 267.47,146.91 267.47,142.29 C267.47,138.16 269.15,131.79 271.53,125.42 C270.62,125.28 269.78,125.14 269.01,124.86 L269.01,123.6 C269.71,123.67 270.76,123.81 272.09,123.88 C276.01,113.8 281.4,104.21 284.27,104.21 C284.97,104.21 285.74,104.77 285.74,105.75 C285.74,108.2 280.49,115.48 276.43,124.09 L279.02,124.09 C282.1,124.09 285.53,124.02 289.03,123.67 Z M286.37,140.4 C286.37,134.87 290.08,134.94 290.85,134.1 C293.65,131.02 296.03,127.66 297.78,123.95 L297.78,123.11 C297.78,119.68 299.18,118.35 300.51,118.35 C301.28,118.35 301.63,118.77 301.63,119.26 C301.63,119.75 301.21,120.73 301.21,122.34 C301.21,126.96 304.85,132.77 304.85,139.21 C304.85,140.47 304.71,141.59 304.43,142.64 C307.65,142.08 310.52,139.98 313.25,134.73 L313.88,135.43 C312.13,140.54 308.28,143.13 304.08,143.76 C302.61,147.75 299.11,149.57 295.12,149.57 C288.54,149.57 286.37,144.6 286.37,140.4 Z M300.3,139.28 C300.3,134.87 298.83,130.46 298.13,126.61 C295.96,130.18 293.44,133.61 291.34,135.71 C292.74,138.72 295.75,141.66 300.02,142.57 C300.16,141.66 300.3,140.68 300.3,139.28 Z M295.26,147.12 C296.38,147.12 298.62,146.77 299.67,143.69 C295.75,142.92 292.53,140.26 291.06,137.88 C289.94,137.95 289.52,138.86 289.52,140.33 C289.52,143.69 291.62,147.12 295.26,147.12 Z M352.17,123.95 C351.68,123.25 350.77,122.9 349.51,122.9 C341.95,122.9 335.3,135.99 335.3,141.38 C335.3,143.48 336.28,144.74 337.82,144.74 C341.6,144.74 348.46,137.18 352.94,125.49 C358.12,111.98 364.42,95.6 368.27,95.6 C369.04,95.6 369.67,96.3 369.67,97.21 C369.67,101.62 353.57,127.24 353.57,141.1 C353.57,143.76 353.57,145.02 355.18,145.02 C358.05,145.02 363.02,141.03 365.96,134.66 L366.8,135.29 C364.07,142.5 357.98,147.82 353.22,147.82 C349.72,147.82 348.6,145.02 348.6,142.57 C348.6,140.96 349.09,138.3 349.93,135.08 C345.38,142.57 339.92,148.1 335.65,148.1 C333.27,148.1 330.4,146.35 330.4,142.22 C330.4,134.45 340.55,120.8 349.23,120.8 C351.19,120.8 352.31,121.5 352.31,122.97 C352.31,123.32 352.24,123.6 352.17,123.95 Z M394.38,134.8 L395.29,135.5 C393.26,140.19 390.6,141.52 388.29,141.52 C385.7,141.52 383.11,139.84 381.71,136.62 C378.77,143.48 374.36,148.24 369.46,148.24 C365.89,148.24 363.86,145.72 363.86,142.15 C363.86,134.73 372.47,121.36 380.8,121.36 C382.55,121.36 383.39,121.99 383.81,122.83 C383.95,122.76 384.09,122.76 384.3,122.76 C386.05,122.76 386.68,124.65 386.68,125.49 C386.68,127.24 383.95,130.6 383.95,134.31 C383.95,137.88 386.4,140.12 388.85,140.12 C390.81,140.12 392.56,138.65 394.38,134.8 Z M371,145.23 C374.15,145.23 378.49,140.47 381.01,134.45 C380.73,133.33 380.59,132.07 380.59,130.46 C380.59,127.31 381.15,125.28 381.92,124.09 C374.01,124.09 368.34,136.34 368.34,141.66 C368.34,143.83 369.32,145.23 371,145.23 Z M390.39,145.51 C390.39,144.67 395.29,134.38 395.36,128.29 C395.92,127.66 397.25,126.82 398.58,126.82 C399.84,126.82 400.47,127.52 400.47,128.64 C400.47,130.11 399.49,134.03 398.23,137.88 C401.94,132.21 407.47,125.56 412.79,125.56 C416.43,125.56 417.97,128.71 417.97,131.86 C417.97,136.2 415.1,139.49 415.1,142.92 C415.1,144.88 416.01,145.58 417.2,145.58 C420.7,145.58 424.41,139.84 427,134.66 L427.77,135.57 C424.83,142.43 420.91,147.4 415.66,147.4 C412.37,147.4 410.76,145.51 410.76,142.92 C410.76,140.05 412.79,136.48 412.79,133.19 C412.79,130.6 411.6,129.76 409.99,129.76 C404.18,129.76 397.74,140.89 394.1,147.05 C392.63,147.05 391.16,146.56 390.39,145.51 Z M434.28,97.56 C434.28,96.51 433.44,95.6 432.53,95.6 C431.97,97.77 429.45,100.36 428.26,103.09 C428.19,103.3 428.12,103.51 428.12,103.72 C428.12,104.56 428.75,105.26 429.45,105.68 C431.13,103.09 434.28,99.38 434.28,97.56 Z M455.98,123.67 C452.48,124.02 449.05,124.09 445.97,124.09 L443.38,124.09 C447.44,115.48 452.69,108.2 452.69,105.75 C452.69,104.77 451.92,104.21 451.22,104.21 C448.35,104.21 442.96,113.8 439.04,123.88 C437.71,123.81 436.66,123.67 435.96,123.6 L435.96,124.86 C436.73,125.14 437.57,125.28 438.48,125.42 C436.1,131.79 434.42,138.16 434.42,142.29 C434.42,146.91 436.59,149.22 440.65,149.22 C447.23,149.22 453.53,143.27 456.89,135.36 L455.98,134.66 C452.41,142.01 447.51,146.63 442.68,146.63 C439.88,146.63 438.76,145.09 438.76,141.03 C438.76,136.06 440.44,130.74 442.61,125.77 L443.66,125.77 C446.81,125.77 450.87,125.49 455.98,124.93 L455.98,123.67 Z M471.59,145.51 C471.59,144.67 476.49,134.38 476.56,128.29 C477.12,127.66 478.45,126.82 479.78,126.82 C481.04,126.82 481.67,127.52 481.67,128.64 C481.67,130.11 480.69,134.03 479.43,137.88 C483.14,132.21 488.67,125.56 493.99,125.56 C497.63,125.56 499.17,128.71 499.17,131.86 C499.17,136.2 496.3,139.49 496.3,142.92 C496.3,144.88 497.21,145.58 498.4,145.58 C501.9,145.58 505.61,139.84 508.2,134.66 L508.97,135.57 C506.03,142.43 502.11,147.4 496.86,147.4 C493.57,147.4 491.96,145.51 491.96,142.92 C491.96,140.05 493.99,136.48 493.99,133.19 C493.99,130.6 492.8,129.76 491.19,129.76 C485.38,129.76 478.94,140.89 475.3,147.05 C473.83,147.05 472.36,146.56 471.59,145.51 Z M528.08,125.07 C528.08,132.21 518.7,137.88 510.72,138.65 C510.51,139.56 510.44,140.47 510.44,141.17 C510.44,144.04 511.63,147.05 515.97,147.05 C520.94,147.05 526.05,143.13 529.69,137.95 C531.37,130.25 538.86,121.78 546.14,121.78 C548.31,121.78 550.48,122.62 550.48,126.05 C550.48,133.19 542.08,137.88 534.1,138.65 C533.89,139.56 533.82,140.47 533.82,141.17 C533.82,144.04 534.87,147.4 539.21,147.4 C545.16,147.4 551.67,141.38 555.17,134.66 L556.01,135.29 C552.23,143.69 544.67,149.43 537.74,149.43 C532.07,149.43 529.34,145.51 529.34,140.96 L529.34,140.61 C525.35,145.93 519.82,149.08 514.5,149.08 C508.83,149.08 505.96,145.51 505.96,140.96 C505.96,132.63 515.48,120.8 523.74,120.8 C525.91,120.8 528.08,121.64 528.08,125.07 Z M523.53,122.97 C519.05,122.97 512.96,130.67 511.07,137.32 C516.04,135.57 525,130.6 525,124.58 C525,123.53 524.72,122.97 523.53,122.97 Z M545.93,123.95 C541.45,123.95 536.34,130.67 534.45,137.32 C539.42,135.57 547.54,131.79 547.54,125.77 C547.54,124.72 547.12,123.95 545.93,123.95 Z M574.42,123.95 C573.93,123.25 573.02,122.9 571.76,122.9 C564.2,122.9 557.55,135.99 557.55,141.38 C557.55,143.48 558.53,144.74 560.07,144.74 C563.85,144.74 570.71,137.18 575.19,125.49 C580.37,111.98 586.67,95.6 590.52,95.6 C591.29,95.6 591.92,96.3 591.92,97.21 C591.92,101.62 575.82,127.24 575.82,141.1 C575.82,143.76 575.82,145.02 577.43,145.02 C580.3,145.02 585.27,141.03 588.21,134.66 L589.05,135.29 C586.32,142.5 580.23,147.82 575.47,147.82 C571.97,147.82 570.85,145.02 570.85,142.57 C570.85,140.96 571.34,138.3 572.18,135.08 C567.63,142.57 562.17,148.1 557.9,148.1 C555.52,148.1 552.65,146.35 552.65,142.22 C552.65,134.45 562.8,120.8 571.48,120.8 C573.44,120.8 574.56,121.5 574.56,122.97 C574.56,123.32 574.49,123.6 574.42,123.95 Z M616.21,122.27 C617.05,122.27 617.75,122.83 617.75,123.81 C617.75,126.12 610.47,134.59 610.47,141.17 C610.47,144.53 611.59,145.37 613.9,145.37 C617.05,145.37 620.69,142.64 624.68,134.66 L625.31,135.36 C622.58,143.41 616.98,147.82 611.52,147.82 C607.88,147.82 606.13,145.23 606.13,141.94 C606.13,136.62 611.45,122.27 616.21,122.27 Z M619.92,115.76 C618.38,115.76 617.05,115.06 617.05,113.45 C617.05,111.49 619.92,109.81 622.16,109.81 C623.56,109.81 624.47,110.37 624.47,111.98 C624.47,113.73 622.16,115.76 619.92,115.76 Z M644.7,123.67 L644.7,124.93 C639.59,125.49 635.53,125.77 632.38,125.77 L631.33,125.77 C629.16,130.74 627.48,136.06 627.48,141.03 C627.48,145.09 628.6,146.63 631.4,146.63 C636.23,146.63 641.13,142.01 644.7,134.66 L645.61,135.36 C642.25,143.27 635.95,149.22 629.37,149.22 C625.31,149.22 623.14,146.91 623.14,142.29 C623.14,138.16 624.82,131.79 627.2,125.42 C626.29,125.28 625.45,125.14 624.68,124.86 L624.68,123.6 C625.38,123.67 626.43,123.81 627.76,123.88 C631.68,113.8 637.07,104.21 639.94,104.21 C640.64,104.21 641.41,104.77 641.41,105.75 C641.41,108.2 636.16,115.48 632.1,124.09 L634.69,124.09 C637.77,124.09 641.2,124.02 644.7,123.67 Z M649.11,138.79 C654.29,131.23 669.69,101.13 669.69,97.21 C669.69,96.3 669.06,95.6 668.29,95.6 C664.44,95.6 658.14,111.98 652.96,125.49 C651.42,129.48 649.11,135.43 649.11,138.79 Z M647.08,146.7 C645.89,146.7 644.84,146.14 644.84,144.81 C644.84,143.27 647.08,141.94 648.9,141.94 C650.02,141.94 650.72,142.36 650.72,143.62 C650.72,145.02 648.9,146.7 647.08,146.7 Z" id="Our-patients-don’t-n" fill="#444444"></path>
                        </g>
                    </g>
                </g>
            </g>
        </g>
    </g>
</svg>